<svg width="30" height="30" viewBox="0 0 30 30" fill="none" xmlns="http://www.w3.org/2000/svg">
<path d="M25.9675 22.5C26.9041 22.5 27.6491 21.9106 28.318 21.0864C29.6873 19.3993 27.4391 18.051 26.5816 17.3908C25.71 16.7195 24.7367 16.3393 23.7499 16.25M22.4999 13.75C24.2258 13.75 25.6249 12.3509 25.6249 10.625C25.6249 8.89911 24.2258 7.5 22.4999 7.5" stroke="#F2F2F2" stroke-linecap="round"/>
<path d="M4.03239 22.5C3.09576 22.5 2.35077 21.9106 1.68187 21.0864C0.31255 19.3993 2.56078 18.051 3.41825 17.3908C4.28991 16.7195 5.26317 16.3393 6.24994 16.25M6.87494 13.75C5.14905 13.75 3.74994 12.3509 3.74994 10.625C3.74994 8.89911 5.14905 7.5 6.87494 7.5" stroke="#F2F2F2" stroke-linecap="round"/>
<path d="M10.1046 18.889C8.82741 19.6787 5.47861 21.2914 7.51825 23.3093C8.5146 24.295 9.62428 25 11.0194 25H18.9803C20.3755 25 21.4852 24.295 22.4815 23.3093C24.5211 21.2914 21.1723 19.6787 19.8951 18.889C16.9001 17.037 13.0997 17.037 10.1046 18.889Z" stroke="#F2F2F2" stroke-linecap="round" stroke-linejoin="round"/>
<path d="M19.3749 9.375C19.3749 11.7912 17.4161 13.75 14.9999 13.75C12.5836 13.75 10.6249 11.7912 10.6249 9.375C10.6249 6.95875 12.5836 5 14.9999 5C17.4161 5 19.3749 6.95875 19.3749 9.375Z" stroke="#F2F2F2"/>
</svg>
