<svg width="30" height="30" viewBox="0 0 30 30" fill="none" xmlns="http://www.w3.org/2000/svg">
<path fill-rule="evenodd" clip-rule="evenodd" d="M30 0H0V30H30V0ZM22.5239 11.0283L15.4655 14.8833C15.1813 15.0389 14.8238 15.0389 14.5305 14.8833L7.47192 11.0283C6.96777 10.7517 6.83942 10.1035 7.22443 9.69724C7.4903 9.41202 7.79279 9.17862 8.11359 9.0144L13.0821 6.42136C14.1454 5.85956 15.8688 5.85956 16.9321 6.42136L21.9006 9.0144C22.2214 9.17862 22.5239 9.42065 22.7898 9.69724C23.1565 10.1035 23.0281 10.7517 22.5239 11.0283ZM14 16.7833V23.0504C14 23.7487 13.3304 24.2082 12.7391 23.905C10.9478 22.9769 7.93042 21.2401 7.93042 21.2401C6.86957 20.606 6 19.0071 6 17.693V12.9514C6 12.2254 6.72174 11.766 7.31305 12.1243L13.5652 15.9563C13.8261 16.1309 14 16.4433 14 16.7833ZM16 23.0504V16.7833C16 16.4433 16.1739 16.1309 16.4348 15.9563L22.687 12.1243C23.2783 11.766 24 12.2254 24 12.9514V17.693C24 19.0071 23.1304 20.606 22.0696 21.2401C22.0696 21.2401 19.0522 22.9769 17.2609 23.905C16.6696 24.2082 16 23.7487 16 23.0504Z" fill="#D9D9D9"/>
</svg>
