<svg width="46" height="46" viewBox="0 0 46 46" fill="none" xmlns="http://www.w3.org/2000/svg">
<g filter="url(#filter0_d_308_97)">
<path d="M35.5399 14.3806L23.7758 20.8055C23.3021 21.0648 22.7063 21.0648 22.2174 20.8055L10.4532 14.3806C9.61292 13.9196 9.39903 12.8391 10.0407 12.1621C10.4838 11.6867 10.988 11.2977 11.5227 11.024L19.8034 6.70228C21.5757 5.76591 24.448 5.76591 26.2203 6.70228L34.501 11.024C35.0357 11.2977 35.5399 11.7011 35.983 12.1621C36.5941 12.8391 36.3802 13.9196 35.5399 14.3806Z" fill="#28303B"/>
<path d="M21.3333 23.9722V34.4173C21.3333 35.5813 20.2174 36.347 19.2319 35.8416C16.2464 34.2948 11.2174 31.4001 11.2174 31.4001C9.44927 30.3434 8 27.6785 8 25.4884V17.5856C8 16.3757 9.2029 15.6099 10.1884 16.2072L20.6087 22.5938C21.0435 22.8848 21.3333 23.4055 21.3333 23.9722Z" fill="#28303B"/>
<path d="M24.6667 23.9722V34.4173C24.6667 35.5813 25.7826 36.347 26.7681 35.8416C29.7536 34.2948 34.7826 31.4001 34.7826 31.4001C36.5507 30.3434 38 27.6785 38 25.4884V17.5856C38 16.3757 36.7971 15.6099 35.8116 16.2072L25.3913 22.5938C24.9565 22.8848 24.6667 23.4055 24.6667 23.9722Z" fill="#28303B"/>
</g>
<defs>
<filter id="filter0_d_308_97" x="0" y="0" width="46" height="46" filterUnits="userSpaceOnUse" color-interpolation-filters="sRGB">
<feFlood flood-opacity="0" result="BackgroundImageFix"/>
<feColorMatrix in="SourceAlpha" type="matrix" values="0 0 0 0 0 0 0 0 0 0 0 0 0 0 0 0 0 0 127 0" result="hardAlpha"/>
<feOffset dy="2"/>
<feGaussianBlur stdDeviation="4"/>
<feComposite in2="hardAlpha" operator="out"/>
<feColorMatrix type="matrix" values="0 0 0 0 0 0 0 0 0 0 0 0 0 0 0 0 0 0 0.08 0"/>
<feBlend mode="normal" in2="BackgroundImageFix" result="effect1_dropShadow_308_97"/>
<feBlend mode="normal" in="SourceGraphic" in2="effect1_dropShadow_308_97" result="shape"/>
</filter>
</defs>
</svg>
