<svg width="46" height="46" viewBox="0 0 46 46" fill="none" xmlns="http://www.w3.org/2000/svg">
<g filter="url(#filter0_d_308_92)">
<path d="M18.5384 6C14.6164 6 11.428 9.12876 11.428 12.9773C11.428 16.7523 14.4368 19.8077 18.3588 19.9399C18.4785 19.9252 18.5983 19.9252 18.6881 19.9399C18.718 19.9399 18.733 19.9399 18.763 19.9399C18.7779 19.9399 18.7779 19.9399 18.7929 19.9399C22.625 19.8077 25.6339 16.7523 25.6488 12.9773C25.6488 9.12876 22.4604 6 18.5384 6Z" fill="#28303B"/>
<path d="M26.1428 24.4691C21.9664 21.737 15.1553 21.737 10.949 24.4691C9.04785 25.7177 8 27.4069 8 29.2137C8 31.0204 9.04785 32.695 10.934 33.9289C13.0297 35.3096 15.7841 36 18.5384 36C21.2928 36 24.0471 35.3096 26.1428 33.9289C28.029 32.6803 29.0768 31.0057 29.0768 29.1843C29.0618 27.3776 28.029 25.703 26.1428 24.4691Z" fill="#28303B"/>
<path d="M34.9898 13.8439C35.2294 16.6936 33.1636 19.1907 30.3044 19.5285C30.2895 19.5285 30.2895 19.5285 30.2745 19.5285H30.2296C30.1398 19.5285 30.05 19.5285 29.9751 19.5579C28.5231 19.6314 27.1908 19.176 26.1879 18.3387C27.7297 16.9874 28.6129 14.9603 28.4333 12.7569C28.3285 11.5671 27.9094 10.4801 27.2806 9.55472C27.8495 9.27563 28.5081 9.09936 29.1817 9.0406C32.1157 8.79089 34.7354 10.9355 34.9898 13.8439Z" fill="#28303B"/>
<path d="M37.9837 28.0533C37.8639 29.4781 36.9358 30.712 35.379 31.5492C33.8821 32.3571 31.9959 32.739 30.1248 32.695C31.2026 31.7402 31.8313 30.5504 31.951 29.2871C32.1007 27.4657 31.2175 25.7177 29.4512 24.3223C28.4482 23.5437 27.2806 22.9268 26.0082 22.4714C29.3164 21.5313 33.4779 22.163 36.0377 24.1901C37.4148 25.277 38.1184 26.6431 37.9837 28.0533Z" fill="#28303B"/>
</g>
<defs>
<filter id="filter0_d_308_92" x="0" y="0" width="46" height="46" filterUnits="userSpaceOnUse" color-interpolation-filters="sRGB">
<feFlood flood-opacity="0" result="BackgroundImageFix"/>
<feColorMatrix in="SourceAlpha" type="matrix" values="0 0 0 0 0 0 0 0 0 0 0 0 0 0 0 0 0 0 127 0" result="hardAlpha"/>
<feOffset dy="2"/>
<feGaussianBlur stdDeviation="4"/>
<feComposite in2="hardAlpha" operator="out"/>
<feColorMatrix type="matrix" values="0 0 0 0 0 0 0 0 0 0 0 0 0 0 0 0 0 0 0.08 0"/>
<feBlend mode="normal" in2="BackgroundImageFix" result="effect1_dropShadow_308_92"/>
<feBlend mode="normal" in="SourceGraphic" in2="effect1_dropShadow_308_92" result="shape"/>
</filter>
</defs>
</svg>
