<svg width="30" height="30" viewBox="0 0 30 30" fill="none" xmlns="http://www.w3.org/2000/svg">
<path fill-rule="evenodd" clip-rule="evenodd" d="M30 0H0V30H30V0ZM8.05679 10.1864C8.05679 7.87725 9.96987 6 12.323 6C14.6762 6 16.5893 7.87725 16.5893 10.1864C16.5803 12.4514 14.775 14.2846 12.4757 14.3639H12.4578H12.4129C12.359 14.3551 12.2871 14.3551 12.2153 14.3639C9.86209 14.2846 8.05679 12.4514 8.05679 10.1864ZM7.76937 17.0815C10.2932 15.4422 14.3798 15.4422 16.8857 17.0815C18.0174 17.8218 18.6371 18.8265 18.6461 19.9106C18.6461 21.0034 18.0174 22.0082 16.8857 22.7573C15.6283 23.5858 13.9757 24 12.323 24C10.6704 24 9.01782 23.5858 7.76039 22.7573C6.62871 22.017 6 21.0123 6 19.9282C6 18.8442 6.62871 17.8306 7.76937 17.0815ZM22.1939 10.7063C22.3376 12.4161 21.0982 13.9144 19.3827 14.1171H19.3647H19.3378C19.2839 14.1171 19.23 14.1171 19.1851 14.1348C18.3139 14.1788 17.5145 13.9056 16.9127 13.4032C17.8378 12.5924 18.3677 11.3762 18.26 10.0542C18.1971 9.34027 17.9456 8.68808 17.5684 8.13283C17.9097 7.96538 18.3049 7.85962 18.709 7.82436C20.4694 7.67453 22.0412 8.96129 22.1939 10.7063ZM22.4274 21.3295C23.3615 20.8272 23.9184 20.0869 23.9902 19.232C24.071 18.3859 23.6489 17.5662 22.8226 16.914C21.2867 15.6978 18.7899 15.3188 16.8049 15.8829C17.5684 16.1561 18.2689 16.5262 18.8707 16.9934C19.9305 17.8306 20.4604 18.8794 20.3706 19.9723C20.2988 20.7302 19.9215 21.4441 19.2749 22.017C20.3976 22.0434 21.5292 21.8143 22.4274 21.3295Z" fill="#D9D9D9"/>
</svg>
